<svg id="Layer_1" data-name="Layer 1" xmlns="http://www.w3.org/2000/svg" width="380" height="380" viewBox="0 0 380 380"><title>logo</title><path d="M158.7,380c-2.4-2.2-2.9-4.5-.6-7.1a4,4,0,0,0,.7-1.9,32.8,32.8,0,0,1,.4-6.2c-4.4-7.7-1.8-12.5,7.3-13.2a45.3,45.3,0,0,0,6.9-1.5c0,2.5,0,5,.1,7.6.1,4.8-2.2,7.3-7.4,7.9a26.3,26.3,0,0,0-3.9.6c-.2,0-.3.5-.7,1.5l5.6.4c3.4.2,7-.1,8.5,3.7s-1.1,5.9-3.3,8.2Zm8.2-8.8c-3.5.6-6.8.6-6.6,4.6,0,1.1,3.1,2.7,4.9,3s6.5-.3,6.6-4.2C171.8,373.5,168.6,372.3,166.9,371.2Zm3.3-11.8c-.9-3.8-1.9-5.7-5.1-5.5s-3.6,2.1-3.6,4.7.9,5.2,3.9,4.6S168.6,360.7,170.2,359.4Z" fill="#fff"/><path d="M348.7,334.3a148.6,148.6,0,0,0-36.6-29c-24.8-14-51.5-22-79.8-25.7a279.1,279.1,0,0,0-58.5-.9,321.7,321.7,0,0,0-36.5,5.6c-12.2,2.5-24.3,5.7-36.2,9.2a206.8,206.8,0,0,0-23.8,8.9c-11.2,4.9-22.3,10-33.1,15.7-8.4,4.3-16.3,9.7-24.4,14.6l-5,2.7c.5-2.4.4-4.2,1.1-4.7,10.8-8,21-16.9,32.6-23.4a590.8,590.8,0,0,1,55.7-27.9c12.4-5.2,25.8-8.3,39-11.3,22-5,44.7-3.3,67.1-4.4l5.2-.3c-2.1-4.1-4.9-7.9-5.7-12s-1.8-10.7,0-14.9c4.6-11.1,1.8-18.3-6.8-26.5a129.2,129.2,0,0,1-30.4-44.6c-2.4-5.8-3-11.8.2-17.9,1.1,4.4,1.7,9,3.3,13.3s4.1,11.3,7.2,16.4a229.4,229.4,0,0,0,15,21.5,108,108,0,0,0,11.9,12.5c3.6,3.2,4.8,6.9,4.2,11.7-.8,7.1-1.4,14.4-1.8,21.6a13.9,13.9,0,0,0,.9,5.7c1.3,3.4,3.1,3.7,6.9.2-.3,3-.2,5.3-.9,7.2-1.5,4.1-.7,5.8,3.6,5.9,17.4.4,33.9,4.9,50.1,10.8,14.3,5.2,28.1,11.6,40.3,20.8,10.6,8.1,20.9,16.6,29,27.5C345.1,326,348.5,328.9,348.7,334.3Z" fill="#fff"/><path d="M169.4,117.4a80.2,80.2,0,0,1-5.3,6.3c-11.3,11.6-21.7,23.9-29.8,38a121,121,0,0,0-15,49.9,55.1,55.1,0,0,0,4.7,28.3,41,41,0,0,1,1.4,5l-1,.6a28.3,28.3,0,0,1-4-3.7c-9.2-12.3-10.5-26.5-8.5-41s8.5-26.4,15.5-38.4c9.5-16.4,22.2-30.1,36.1-42.7a53.6,53.6,0,0,1,4.9-3.4Z" fill="#fff"/><path d="M252.2,165.8c-7.5,9.1-15.1,18.1-22.5,27.2-.7,1-.4,3.5.4,4.7a24.1,24.1,0,0,1,2.9,14.9c-4-7.2-7.7-14.3-11.8-21.2a49.7,49.7,0,0,1-7.1-25.4,22,22,0,0,1,1.8-8.5c2.1,10.7,3.8,21.4,8.6,31.2,13.6-5.8,20.9-16.7,26.2-29.1,8.4-20,10-40.4,5.3-61.7-2.3-10.8-1.7-22.2-3.4-33.2-1.2-7.7,2.3-11,8.3-14,2.4-1.2,3.8-4.2,6.5-6.6-.6,2.1-1,4.4-2,6.2s-2.7,2.4-4,3.6c-4.4,4-7.4,8.6-6.4,15.1,2,11.7,3.3,23.6,5.7,35.3,4.3,21.1,2.3,41.1-7.9,60.2Z" fill="#fff"/><path d="M104.6,245.3c-1.1.1-1.5.2-1.6.1-17-15.1-28.6-32.9-26.7-56.7,1.2-15.3,8.8-27.4,20.8-36.7l1.1-.8,1.9-.4c.7,13.8-1.8,27.1-1.9,40.6H96.7c-.6-9.5-1.2-19.1-1.9-29.6-9.7,13.7-14.9,27.7-12.7,43.9S93.6,233.7,104.6,245.3Z" fill="#fff"/><path d="M196.1,12.4c-10.9,9.5-10.6,23.5-12.6,35.5s2.8,23.4,6.8,34.6l1.2.2a56.2,56.2,0,0,0,4-7.7c4.3-12.3,4.3-25.2,4.3-38,.1-6.5.1-12.9.8-19.7.9,3,2.1,5.9,2.6,9,2.9,19.8-1.5,38.7-7.6,57.3a19.1,19.1,0,0,1-1.6,3.2c-2.4,3.8-5.4,3.7-7.7-.1a13,13,0,0,1-.8-1.7c-4-12.7-7.2-25.5-6.8-39,.1-2.2-.2-5.2,1.1-6.6,4.7-5,4.6-11.5,6.2-17.5S190.8,13.8,196.1,12.4Z" fill="#fff"/><path d="M270.1,334.5h-9.7c3.6-5,3.5-21.4-.6-24.8a7.3,7.3,0,0,1,2.2-.6c4.4-.2,8.9,1.4,13.2-.9a2.4,2.4,0,0,1,2.2.1c4.1,3,8.1,1.1,12.2.1s8.5,1.4,8.8,6.9,0,8.7.2,13.1c.1,1.9,1.1,3.8,1.8,5.9H290.2c4.3-1.4,3.3-5,3.3-8.1s.1-5.7,0-8.6c-.1-4.9-4.4-7.4-8.8-4.9-.9.5-1.4,2.2-1.5,3.3a99.2,99.2,0,0,0,.1,12.2c.1,2,1.3,3.9,2.1,6.1h-9a62.4,62.4,0,0,0,1.7-9,35.4,35.4,0,0,0-.6-10.8c-.9-3.4-4.5-2.7-6.9-2.1s-2.5,2.6-2.6,4.1a51.7,51.7,0,0,0-.1,10.4C268.2,329.4,269.3,331.8,270.1,334.5Z" fill="#fff"/><path d="M272.2,42.2c-6.8-7.9-2.6-16-1.7-25.4l-11.7,3.9c1.8,2,2.6,3.5,3.9,4.4,3.3,2.3,3.6,5.2,2.2,8.7-3.7,9-19.5,19.9-29.2,19.8-1.5,0-3-1.2-4.5-1.8,1.3-1.1,2.4-2.5,3.9-3.1a21.2,21.2,0,0,1,6.2-1.1c12.1-.7,18.2-8.8,23.6-18.6l-14.6-6.6c3.8-2.3,6.7-4.1,10.5-6.6L252.2,18c-2.6.5-4.5.4-5.1-3.1s-4.6-6.2-8.5-7.3c-7.7-2.1-15.6-3.2-23.9-1.7a39.6,39.6,0,0,1,4.5-2.5c10-3.8,21.9-1.1,28.9,7.1,4.8,5.8,10.8,5.2,16.9,4.7s7.1-.7,7.2,6.3S272.2,35,272.2,42.2Z" fill="#fff"/><path d="M252.2,165.8l.6-1.3a12,12,0,0,1,.6,3.2c-.9,8.9-2.4,17.9-2.8,26.9-.6,11.6-.5,23.2-.1,34.8.2,9.7.4,19.8,13.2,23.5-9.1,2.5-15.2,0-16.8-7.7a106.7,106.7,0,0,1-1.6-21.9c0-10.9,1-21.7,1.2-32.6C246.7,182,248.2,173.7,252.2,165.8Z" fill="#fff"/><path d="M221.8,308.2v-10l-3.7-1.4V296h8.8v25.1a59,59,0,0,0,.1,7.3c.2,1.9,1.1,3.7,1.8,6.1a5.8,5.8,0,0,1-1.3.3l-11,.9c-6.4.6-10.9-2.6-11.7-9.1a30.3,30.3,0,0,1,0-8.5c.9-6.5,4.7-9.7,11.3-9.9Zm.2,2.4c-3.6.6-6.8.4-9,1.7-4.6,2.7-4.5,15.6-.3,18.9s9.1,1.3,9.2-1.9C222.1,323.5,222,317.7,222,310.6Z" fill="#fff"/><path d="M127.3,311.2v11.3c-1.8-1.4-3.2-3.3-5-3.9s-4.8-.1-7.8-.1c0,4.2-.5,8.2.2,11.9.3,1.4,3.4,2.3,5.9,3.9H104.7c5.4-1.6,3.9-5.9,3.9-9.5.1-6.3,0-12.7,0-19,.1-3.3.7-6.8-4.1-8h26.8v8.5c-2.7-10.3-10.7-4.4-16.5-6.3v15.1C119.3,315.1,124.4,317.8,127.3,311.2Z" fill="#fff"/><path d="M105.1,344c6,0,12.1-.6,17.9.2,7.3,1.1,10.7,6.4,10.4,14.1s-4.5,12.9-11.9,13.5c-5.4.5-10.8.1-16.5.1C109.1,366.6,109.1,347.7,105.1,344Zm7.8,25.6c5.3.1,10.3,1.1,13.6-3.8s2.6-12.4-.4-15.9-8.2-4.5-13.2-3.8Z" fill="#fff"/><path d="M169.1,242.9c8.7-19.2-1.7-40.7-18.5-45l-.3-1.2c2.5-.3,5.1-1.5,7.3-.9a29.8,29.8,0,0,1,10.7,4.5C180.2,209.2,180.9,232.7,169.1,242.9Z" fill="#fff"/><path d="M213.9,371.8c-3.9,1.2-7-.1-9-4.4a20.9,20.9,0,0,0-3.4-5.3c-1.4-1.4-3.4-2.2-5.6-3.6-1.5,9-1.2,10.2,3.3,13.2H187.7c4-4.1,3.9-24-.2-27.8,5.6,0,11-.6,16.3.2,2.2.3,5.3,3.1,5.7,5.2s-1.4,5.3-2.5,8c-.3.7-1.3,1.1-2.5,1.9ZM195.5,345v13.4c3.7-1.6,6.9-2.3,9.1-4.2s.8-5.2-.3-6S198.8,346.1,195.5,345Z" fill="#fff"/><path d="M232.6,321.9c0-8.9,4.1-13.7,12-13.7s12.1,4.7,12.2,13.5-4.3,14.1-12.3,14S232.7,331,232.6,321.9Zm18.8.5a59.7,59.7,0,0,0-.8-6.6c-.7-3.1-2.8-4.8-6.2-4.8s-5.5,1.7-5.8,5-.5,8.5.4,12.5c.3,1.7,3.2,3.7,5.2,4.3s5.3-1,6.1-4.1A52.2,52.2,0,0,0,251.4,322.4Z" fill="#fff"/><path d="M185.5,322c-.7,8.6.4,9.4,14.7,10.4-2.8,3.1-5.9,3.3-9.1,3.3s-7.9-1-9.8-5.1a19.1,19.1,0,0,1,.2-17.4c1.8-3.9,6.3-5.7,11.2-4.9a8.9,8.9,0,0,1,7.8,8.1,52,52,0,0,1,0,5.6Zm9.8-3c-.4-6.3-1.6-8.1-5-7.9s-5.1,2.7-4.7,7.9Z" fill="#fff"/><path d="M160,322.1c.1,4.3.3,8.2,4.4,9.5s6.6.6,10.8.9c-3.5,3.4-7.2,3.5-11,3.1s-7.6-2-8.2-6a41.6,41.6,0,0,1-.1-14.5c1-5.5,6.8-8,12.5-6.7a10.1,10.1,0,0,1,7.4,11.4,3.9,3.9,0,0,1-2.9,2.2C168.7,322.3,164.5,322.1,160,322.1Zm.4-3h9.4c.7-5.2-.5-7.7-3.7-8S160.8,313.1,160.4,319.1Z" fill="#fff"/><path d="M135.2,334.5c3.7-4.1,3.6-21.2.5-25.7l7.1,1.7a5.1,5.1,0,0,0,2.7-.3c1.9-.6,3.8-1.5,6.4-2.5v8.2c-1.1-1-1.5-1.7-2.1-1.8s-3.4-1.1-4.9-.7-1.7,2.3-1.8,3.6c-.2,3.2,0,6.4-.1,9.5s-.3,6.3,3.5,8Z" fill="#fff"/><path d="M279,351.9h6.5c.3,6.7.6,13.1.9,20-3.3,0-7.8.5-12.2-.2-1.6-.3-3.5-3.1-4-5s0-5.7-.2-8.6-.8-4.1-1.2-6.1h5.3c0,3.8-.1,7.4,0,11s-.7,5.9,3.9,6,4.1-3,3.8-5.7S283.7,355.5,279,351.9Z" fill="#fff"/><path d="M135.5,361.7c.1-6.5,3.4-10,9.5-10s9.4,3.8,9.3,10.3-3.5,10-9.5,10S135.5,368.4,135.5,361.7Zm4.2-.3c.2,1.7-.2,3.4.5,4.3s3.1,3.8,4.6,3.8,4-2.1,4.5-3.8a16,16,0,0,0-.1-8.4,6.1,6.1,0,0,0-4.6-3.1c-1.4-.1-3.2,1.7-4.2,3.2S139.9,360.3,139.7,361.4Z" fill="#fff"/><path d="M231.7,362H220.2c-.1,6.1,0,6.1,10.5,7.4-2.6,2.9-7.8,3.5-11.3,1.4s-5.1-9.3-2.8-14.4a8.3,8.3,0,0,1,9.8-4.5C230.5,352.9,232.2,355.9,231.7,362ZM220,359.6h7.3c.5-2.9.2-5.4-3-5.6S220.2,356.4,220,359.6Z" fill="#fff"/><path d="M294.1,362c.3,6.4.3,6.4,10.2,7.4-2.2,2.9-7.5,3.6-11,1.4-5.5-3.4-5.3-15.4.6-17.9a11.2,11.2,0,0,1,8.8.4c2.1,1.3,2.7,5,4.5,8.7Zm7.8-2.3c-.5-3.1-.6-6-4.2-5.7s-4,2.6-3.3,5.7Z" fill="#fff"/><path d="M160.6,255.4l12.5,4.1-.5.6-31.7,2.1v-.8l23.5-12.1Z" fill="#fff"/><path d="M234.2,367.2c2.6,1,4.6,2.1,6.8,2.4s2.5-1.2,2.7-2.2a3.9,3.9,0,0,0-1.5-3.2c-1.5-1-3.6-1.1-4.9-2.2s-3.2-3.3-3.1-4.9,1.9-3.8,3.5-4.7c4.5-2.4,8.7-.4,8.5,3.7-1.7-.8-3.3-1.8-5-2a3.7,3.7,0,0,0-3.1,1.7c-.3.8.8,2.5,1.7,3.1s3.4.9,4.4,2.1,3.4,4,3.3,6-2.7,3.7-4.6,4.7-3.8.3-5.8.1S233.2,369.6,234.2,367.2Z" fill="#fff"/><path d="M266.9,369c-3.8,3.4-9,3.9-12.6,1.8s-5-6.5-4.1-11.7,3.5-6.5,7.5-7.3a28.1,28.1,0,0,1,4.1-.1c4.2,0,5.1,2,3.5,6.4-1.7-4-4.9-5.7-7.6-3.6s-3.2,5.7-3.2,8.6,2.4,4.7,4.4,5.7S263.7,369,266.9,369Z" fill="#fff"/><path d="M228.2,23.3l-9.4,1.2-1-.8,5.7-6.9Z" fill="#fff"/></svg>