<svg xmlns="http://www.w3.org/2000/svg" width="71.4" height="117.4" viewBox="0 0 71.4 117.4"><g fill="#e85746" opacity=".1"><ellipse cx="15" cy="27.2" rx="12.3" ry="8.7" transform="rotate(-60 14.986 27.243)"/><ellipse cx="21.1" cy="27.5" rx="8.8" ry="12.3" transform="rotate(-23.3 21.106 27.61)"/><ellipse cx="32.3" cy="16.1" rx="4.9" ry="3.1" transform="rotate(-60 32.364 16.145)"/><ellipse cx="3.9" cy="15.8" rx="3.1" ry="4.9" transform="rotate(-30 3.95 15.859)"/><ellipse cx="12.5" cy="7.5" rx="4.4" ry="7.6" transform="rotate(-9 12.842 7.403)"/><ellipse cx="24.2" cy="7.5" rx="7.6" ry="4.3" transform="rotate(-75.7 24.224 7.472)"/></g><g fill="#e85746" opacity=".1"><ellipse cx="50.7" cy="66" rx="12.3" ry="8.7" transform="rotate(-60 50.697 65.99)"/><ellipse cx="56.8" cy="66.3" rx="8.8" ry="12.3" transform="rotate(-23.3 56.86 66.331)"/><ellipse cx="68" cy="54.9" rx="4.9" ry="3.1" transform="rotate(-60 68.075 54.891)"/><ellipse cx="39.6" cy="54.5" rx="3.1" ry="4.9" transform="rotate(-30 39.57 54.603)"/><ellipse cx="48.2" cy="46.3" rx="4.4" ry="7.6" transform="rotate(-9 48.16 45.98)"/><ellipse cx="59.9" cy="46.3" rx="7.6" ry="4.3" transform="rotate(-75.7 59.925 46.257)"/></g><g fill="#e85746" opacity=".1"><ellipse cx="14" cy="105.3" rx="12.3" ry="8.7" transform="rotate(-60 13.932 105.27)"/><ellipse cx="20" cy="105.6" rx="8.8" ry="12.3" transform="rotate(-23.3 20.156 105.788)"/><ellipse cx="31.3" cy="94.2" rx="4.9" ry="3.1" transform="rotate(-60 31.26 94.258)"/><ellipse cx="2.8" cy="93.8" rx="3.1" ry="4.9" transform="rotate(-30 2.874 93.77)"/><ellipse cx="11.5" cy="85.6" rx="4.4" ry="7.6" transform="rotate(-9 11.189 85.261)"/><ellipse cx="23.2" cy="85.6" rx="7.6" ry="4.3" transform="rotate(-75.7 23.1 85.545)"/></g></svg>