<svg xmlns="http://www.w3.org/2000/svg" width="64.8" height="70.8" viewBox="0 0 64.8 70.8"><g fill="#e85746" opacity=".1"><ellipse cx="13.4" cy="24.7" rx="11.2" ry="7.9" transform="rotate(-60 13.435 24.73)"/><ellipse cx="18.9" cy="25" rx="8" ry="11.1" transform="rotate(-23.3 18.888 24.878)"/><ellipse cx="29.1" cy="14.7" rx="4.5" ry="2.8" transform="rotate(-60 29.096 14.605)"/><ellipse cx="3.3" cy="14.3" rx="2.8" ry="4.5" transform="rotate(-30 3.368 14.302)"/><ellipse cx="11.2" cy="6.8" rx="4" ry="6.9" transform="rotate(-9 10.986 6.618)"/><ellipse cx="21.7" cy="6.8" rx="6.9" ry="3.9" transform="rotate(-75.7 21.758 6.794)"/></g><g fill="#e85746" opacity=".1"><ellipse cx="45.8" cy="59.9" rx="11.2" ry="7.9" transform="rotate(-60 45.775 59.915)"/><ellipse cx="51.3" cy="60.1" rx="8" ry="11.1" transform="rotate(-23.3 51.312 60.131)"/><ellipse cx="61.5" cy="49.8" rx="4.5" ry="2.8" transform="rotate(-60 61.523 49.839)"/><ellipse cx="35.7" cy="49.5" rx="2.8" ry="4.5" transform="rotate(-30 35.718 49.57)"/><ellipse cx="43.5" cy="42" rx="4" ry="6.9" transform="rotate(-9 43.378 41.769)"/><ellipse cx="54.1" cy="42" rx="6.9" ry="3.9" transform="rotate(-75.7 54.099 41.936)"/></g></svg>