<svg xmlns="http://www.w3.org/2000/svg" width="54.1" height="59.2" viewBox="0 0 54.1 59.2"><g fill="#2576a7" opacity=".1"><ellipse cx="11.2" cy="20.7" rx="9.3" ry="6.6" transform="rotate(-60 11.17 20.652)"/><ellipse cx="15.8" cy="20.9" rx="6.7" ry="9.3" transform="rotate(-23.3 15.9 20.975)"/><ellipse cx="24.3" cy="12.2" rx="3.7" ry="2.3" transform="rotate(-60 24.356 12.214)"/><ellipse cx="2.8" cy="11.9" rx="2.3" ry="3.7" transform="rotate(-30 2.798 11.95)"/><ellipse cx="9.3" cy="5.7" rx="3.3" ry="5.7" transform="rotate(-9 9.13 5.832)"/><ellipse cx="18.2" cy="5.7" rx="5.7" ry="3.3" transform="rotate(-75.7 18.191 5.674)"/></g><g fill="#2576a7" opacity=".1"><ellipse cx="38.3" cy="50.1" rx="9.3" ry="6.6" transform="rotate(-60 38.303 50.058)"/><ellipse cx="42.9" cy="50.3" rx="6.7" ry="9.3" transform="rotate(-23.3 42.969 50.321)"/><ellipse cx="51.4" cy="41.7" rx="3.7" ry="2.3" transform="rotate(-60 51.351 41.657)"/><ellipse cx="29.8" cy="41.3" rx="2.3" ry="3.7" transform="rotate(-30 29.904 41.413)"/><ellipse cx="36.4" cy="35.1" rx="3.3" ry="5.7" transform="rotate(-9 36.254 34.816)"/><ellipse cx="45.3" cy="35.1" rx="5.7" ry="3.3" transform="rotate(-75.7 45.284 35.086)"/></g></svg>