<svg height="89" viewBox="0 0 54.1 89" width="54.1" xmlns="http://www.w3.org/2000/svg"><g fill="#2576a7"><g opacity=".1"><ellipse cx="11.2" cy="20.7" rx="9.3" ry="6.6" transform="matrix(.5 -.8660254 .8660254 .5 -12.3 20)"/><ellipse cx="15.8" cy="20.9" rx="6.7" ry="9.3" transform="matrix(.91844638 -.3955455 .3955455 .91844638 -7 8)"/><ellipse cx="24.3" cy="12.2" rx="3.7" ry="2.3" transform="matrix(.5 -.8660254 .8660254 .5 1.6 27.2)"/><ellipse cx="2.8" cy="11.9" rx="2.3" ry="3.7" transform="matrix(.8660254 -.5 .5 .8660254 -5.6 3)"/><ellipse cx="9.3" cy="5.7" rx="3.3" ry="5.7" transform="matrix(.98768834 -.15643447 .15643447 .98768834 -.8 1.5)"/><ellipse cx="18.2" cy="5.7" rx="5.7" ry="3.3" transform="matrix(.24699901 -.96901573 .96901573 .24699901 8.2 21.9)"/></g><g opacity=".1"><ellipse cx="38.3" cy="50.1" rx="9.3" ry="6.6" transform="matrix(.5 -.8660254 .8660254 .5 -24.2 58.2)"/><ellipse cx="42.9" cy="50.3" rx="6.7" ry="9.3" transform="matrix(.91844638 -.3955455 .3955455 .91844638 -16.4 21.1)"/><ellipse cx="51.4" cy="41.7" rx="3.7" ry="2.3" transform="matrix(.5 -.8660254 .8660254 .5 -10.4 65.3)"/><ellipse cx="29.8" cy="41.3" rx="2.3" ry="3.7" transform="matrix(.8660254 -.5 .5 .8660254 -16.7 20.5)"/><ellipse cx="36.4" cy="35.1" rx="3.3" ry="5.7" transform="matrix(.98768834 -.15643447 .15643447 .98768834 -5 6.1)"/><ellipse cx="45.3" cy="35.1" rx="5.7" ry="3.3" transform="matrix(.24699901 -.96901573 .96901573 .24699901 .1 70.3)"/></g><g opacity=".1"><ellipse cx="10.4" cy="79.9" rx="9.3" ry="6.6" transform="matrix(.5 -.8660254 .8660254 .5 -64 48.9)"/><ellipse cx="15" cy="80.1" rx="6.7" ry="9.3" transform="matrix(.91844638 -.3955455 .3955455 .91844638 -30.5 12.5)"/><ellipse cx="23.5" cy="71.5" rx="3.7" ry="2.3" transform="matrix(.5 -.8660254 .8660254 .5 -50.1 56.1)"/><ellipse cx="2" cy="71.2" rx="2.3" ry="3.7" transform="matrix(.8660254 -.5 .5 .8660254 -35.3 10.5)"/><ellipse cx="8.5" cy="64.9" rx="3.3" ry="5.7" transform="matrix(.98768834 -.15643447 .15643447 .98768834 -10 2.1)"/><ellipse cx="17.4" cy="64.9" rx="5.7" ry="3.3" transform="matrix(.24699901 -.96901573 .96901573 .24699901 -49.8 65.7)"/></g></g></svg>