<svg xmlns="http://www.w3.org/2000/svg"><symbol id="facebook" viewBox="0 0 55.7 55.7"><path fill="#fff" d="M52.6 0H3.1A3.1 3.1 0 0 0 0 3.1v49.5a3.1 3.1 0 0 0 3.1 3.1h26.7V34.1h-7.3v-8.4h7.3v-6.2c0-7.2 4.4-11.1 10.8-11.1 3 0 5.7.2 6.5.3v7.6h-4.5c-3.5 0-4.2 1.6-4.2 4.1v5.3h8.4l-1.1 8.4h-7.3v21.6h14.2a3.1 3.1 0 0 0 3.1-3.1V3.1A3.1 3.1 0 0 0 52.6 0z"/></symbol><symbol id="instagram" viewBox="0 0 57.6 57.6"><path fill="#fff" d="M28.8 5.2c7.7 0 8.6 0 11.7.2 7.8.3 11.4 4 11.8 11.8.1 3 .2 3.9.2 11.6s-.1 8.6-.2 11.7c-.4 7.7-4 11.4-11.8 11.8-3.1.1-4 .2-11.7.2s-8.6-.1-11.6-.2c-7.9-.4-11.5-4.1-11.8-11.8-.2-3.1-.2-4-.2-11.7s0-8.6.2-11.6c.3-7.8 4-11.5 11.8-11.8 3-.2 3.9-.2 11.6-.2zm0-5.2C21 0 20 0 16.9.2 6.5.7.7 6.5.2 16.9 0 20 0 21 0 28.8s0 8.8.2 11.9C.7 51.2 6.5 57 16.9 57.5h23.8C51.2 57 57 51.2 57.5 40.7c.1-3.1.1-4 .1-11.9s0-8.8-.1-11.9C57 6.5 51.2.7 40.7.2c-3.1-.2-4-.2-11.9-.2zm0 14a14.8 14.8 0 1 0 14.8 14.8A14.8 14.8 0 0 0 28.8 14zm0 24.4a9.6 9.6 0 1 1 9.6-9.6 9.6 9.6 0 0 1-9.6 9.6zM44.2 10a3.5 3.5 0 0 0-3.5 3.4 3.5 3.5 0 0 0 7 0 3.5 3.5 0 0 0-3.5-3.4z"/></symbol><symbol id="twitter" viewBox="0 0 56 56"><path fill="#fff" d="M44.3 0H11.7A11.7 11.7 0 0 0 0 11.7v32.6A11.7 11.7 0 0 0 11.7 56h32.6A11.8 11.8 0 0 0 56 44.3V11.7A11.7 11.7 0 0 0 44.3 0zM44 21.5c.5 10.8-7.6 22.8-21.8 22.8a22.2 22.2 0 0 1-11.7-3.4 15.7 15.7 0 0 0 11.3-3.2 7.7 7.7 0 0 1-7.1-5.3 9.6 9.6 0 0 0 3.4-.1 7.7 7.7 0 0 1-6.1-7.7 6.8 6.8 0 0 0 3.5 1 7.6 7.6 0 0 1-2.4-10.2 21.8 21.8 0 0 0 15.8 8 7.6 7.6 0 0 1 13-7 17 17 0 0 0 4.9-1.8 8.2 8.2 0 0 1-3.4 4.2 15.9 15.9 0 0 0 4.4-1.2 14.1 14.1 0 0 1-3.8 3.9z"/></symbol></svg>