<svg height="63.7" viewBox="0 0 63.7 63.7" width="63.7" xmlns="http://www.w3.org/2000/svg"><circle cx="31.9" cy="31.9" fill="#f1c33b" r="31.9"/><g fill="#1b498e"><path d="m24.3 32.8h-4.8v13.2h-2.7v-13.2h-4.7v-2.2h12.2z"/><path d="m37.7 38.7a8.7 8.7 0 0 1 -.8 4 5.6 5.6 0 0 1 -2.2 2.6 6.3 6.3 0 0 1 -3.3.9 6.4 6.4 0 0 1 -3.4-.9 6.3 6.3 0 0 1 -2.2-2.6 9.3 9.3 0 0 1 -.8-3.9v-.9a8 8 0 0 1 .8-3.9 6 6 0 0 1 2.2-2.7 6.4 6.4 0 0 1 3.4-.9 6.3 6.3 0 0 1 3.3.9 5.6 5.6 0 0 1 2.2 2.6 8.4 8.4 0 0 1 .8 4zm-2.6-.8a7 7 0 0 0 -1-3.9 3.3 3.3 0 0 0 -2.7-1.4 3.4 3.4 0 0 0 -2.8 1.4 7.8 7.8 0 0 0 -1 3.8v.9a7 7 0 0 0 1 3.9 3.4 3.4 0 0 0 2.8 1.4 3 3 0 0 0 2.7-1.3 7.4 7.4 0 0 0 1-4z"/><path d="m42.5 40.3v5.7h-2.7v-15.4h5.9a6 6 0 0 1 4.1 1.4 4.4 4.4 0 0 1 1.5 3.5 4.5 4.5 0 0 1 -1.4 3.5 6 6 0 0 1 -4.2 1.3zm0-2.2h3.2a3.4 3.4 0 0 0 2.2-.6 2.6 2.6 0 0 0 .8-2 2.6 2.6 0 0 0 -2.9-2.7h-3.3z"/></g><path d="m54.1 23.4-22.1-8.7h-.2l-22.2 8.7" fill="none" stroke="#1b498e" stroke-linecap="round" stroke-miterlimit="10" stroke-width="3"/></svg>